<svg width="195" height="195" viewBox="0 0 195 195" fill="none" xmlns="http://www.w3.org/2000/svg">
<path d="M119.862 97.0445L189.363 27.705C192.407 24.6614 194.117 20.5334 194.117 16.2292C194.117 11.9249 192.407 7.79699 189.363 4.75342C186.32 1.70986 182.192 0 177.887 0C173.583 0 169.455 1.70986 166.412 4.75342L97.0721 74.2546L27.7326 4.75342C24.689 1.70986 20.561 -3.20691e-08 16.2568 0C11.9525 3.20692e-08 7.82457 1.70986 4.78101 4.75342C1.73744 7.79699 0.0275839 11.9249 0.0275839 16.2292C0.0275838 20.5334 1.73744 24.6614 4.78101 27.705L74.2822 97.0445L4.78101 166.384C3.26607 167.887 2.06363 169.674 1.24305 171.644C0.422478 173.613 0 175.726 0 177.86C0 179.993 0.422478 182.106 1.24305 184.076C2.06363 186.045 3.26607 187.833 4.78101 189.336C6.28357 190.85 8.07122 192.053 10.0408 192.874C12.0105 193.694 14.1231 194.117 16.2568 194.117C18.3905 194.117 20.5031 193.694 22.4727 192.874C24.4423 192.053 26.23 190.85 27.7326 189.336L97.0721 119.834L166.412 189.336C167.914 190.85 169.702 192.053 171.671 192.874C173.641 193.694 175.754 194.117 177.887 194.117C180.021 194.117 182.134 193.694 184.103 192.874C186.073 192.053 187.861 190.85 189.363 189.336C190.878 187.833 192.081 186.045 192.901 184.076C193.722 182.106 194.144 179.993 194.144 177.86C194.144 175.726 193.722 173.613 192.901 171.644C192.081 169.674 190.878 167.887 189.363 166.384L119.862 97.0445Z" fill="black"/>
</svg>
