<svg width="18" height="16" viewBox="0 0 18 16" fill="none" xmlns="http://www.w3.org/2000/svg">
<path d="M12.5701 10.7789L13.57 9.77904C13.7262 9.62281 13.998 9.73217 13.998 9.95714V14.5002C13.998 15.3282 13.3262 16 12.4982 16H1.49979C0.67178 16 0 15.3282 0 14.5002V3.50183C0 2.67383 0.67178 2.00205 1.49979 2.00205H10.0455C10.2673 2.00205 10.3798 2.27076 10.2236 2.43011L9.2237 3.42997C9.17683 3.47683 9.11434 3.50183 9.0456 3.50183H1.49979V14.5002H12.4982V10.9539C12.4982 10.8882 12.5232 10.8258 12.5701 10.7789ZM17.4632 4.47356L9.25807 12.6786L6.43347 12.9911C5.61483 13.0817 4.91806 12.3912 5.00867 11.5663L5.32112 8.74169L13.5262 0.53664C14.2417 -0.17888 15.3978 -0.17888 16.1102 0.53664L17.46 1.88644C18.1756 2.60196 18.1756 3.76117 17.4632 4.47356ZM14.3761 5.43905L12.5607 3.62369L6.7553 9.43221L6.5272 11.4725L8.56754 11.2444L14.3761 5.43905ZM16.4008 2.94879L15.051 1.59898C14.9229 1.47088 14.7135 1.47088 14.5886 1.59898L13.6231 2.56447L15.4384 4.37983L16.4039 3.41434C16.5289 3.28311 16.5289 3.07689 16.4008 2.94879Z" fill="black"/>
</svg>
